# AST/ASF file generated using VICON BodyLanguage
# -----------------------------------------------
:version 1.10
:name VICON
:units
  mass 1.0
  length 0.45
  angle deg
:documentation
   .ast/.asf automatically generated from VICON data using
   VICON BodyBuilder and BodyLanguage model FoxedUp or BRILLIANT.MOD
:root
   order TX TY TZ RX RY RZ
   axis XYZ
   position 0 0 0  
   orientation 0 0 0 
:bonedata
  begin
     id 1 
     name lhipjoint
     direction 0.560651 -0.75055 0.34978 
     length 2.44936 
     axis 0 0 0  XYZ
  end
  begin
     id 2 
     name lfemur
     direction 0.34202 -0.939693 0  
     length 7.42139  
     axis 0 0 20  XYZ
    dof rx ry rz
    limits (-160.0 20.0)
           (-70.0 70.0)
           (-60.0 70.0)
  end
  begin
     id 3 
     name ltibia
     direction 0.34202 -0.939693 0   
     length 7.75674   
     axis 0 0 20   XYZ
    dof rx
    limits (-10.0 170.0)
  end
  begin
     id 4 
     name lfoot
     direction 0.0925879 -0.254383 0.962661   
     length 2.38688   
     axis -90 7.62852e-016 20   XYZ
    dof rx rz
    limits (-45.0 90.0)
           (-70.0 20.0)
  end
  begin
     id 5 
     name ltoes
     direction 1.53567e-011 -4.21973e-011 1   
     length 1.19228   
     axis -90 7.62852e-016 20   XYZ
    dof rx
    limits (-90.0 20.0)
  end
  begin
     id 6 
     name rhipjoint
     direction -0.540087 -0.762838 0.355506   
     length 2.4099  
     axis 0 0 0  XYZ 
  end
  begin
     id 7 
     name rfemur
     direction -0.34202 -0.939693 0   
     length 7.70794   
     axis 0 0 -20   XYZ
    dof rx ry rz
    limits (-160.0 20.0)
           (-70.0 70.0)
           (-70.0 60.0)
  end
  begin
     id 8 
     name rtibia
     direction -0.34202 -0.939693 0   
     length 7.66106   
     axis 0 0 -20   XYZ
    dof rx
    limits (-10.0 170.0)
 end
 begin
     id 9 
     name rfoot
     direction -0.0830975 -0.228308 0.970036   
     length 2.4989  
     axis -90 -7.62852e-016 -20   XYZ
    dof rx rz
    limits (-45.0 90.0)
           (-20.0 70.0)
  end
  begin
     id 10 
     name rtoes
     direction -1.53517e-011 -4.21842e-011 1   
     length 1.2498   
     axis -90 -7.62852e-016 -20   XYZ
    dof rx
    limits (-90.0 20.0)
  end
  begin
     id 11 
     name lowerback
     direction 0.0266356 0.99402 -0.105896   
     length 2.1545   
     axis 0 0 0   XYZ
    dof rx ry rz
    limits (-20.0 45.0)
           (-30.0 30.0)
           (-30.0 30.0)
  end
  begin
     id 12 
     name upperback
     direction 0.0130547 0.999192 0.0380027   
     length 2.1434   
     axis 0 0 0   XYZ
    dof rx ry rz
    limits (-20.0 45.0)
           (-30.0 30.0)
           (-30.0 30.0)
  end
  begin
     id 13 
     name thorax
     direction 0.000590299 0.996288 0.0860764   
     length 2.19049   
     axis 0 0 0   XYZ
    dof rx ry rz
    limits (-20.0 45.0)
           (-30.0 30.0)
           (-30.0 30.0)
  end
  begin
     id 14 
     name lowerneck
     direction -0.0432125 0.978219 0.203028   
     length 1.62441   
     axis 0 0 0   XYZ
    dof rx ry rz
    limits (-20.0 45.0)
           (-30.0 30.0)
           (-30.0 30.0)
  end
  begin
     id 15 
     name upperneck
     direction -0.0192309 0.991699 -0.127138   
     length 1.66666   
     axis 0 0 0   XYZ
    dof rx ry rz
    limits (-20.0 45.0)
           (-30.0 30.0)
           (-30.0 30.0)
  end
  begin
     id 16
     name head
     direction -0.00434499 0.997882 -0.0649107  
     length 1.67142  
     axis 0 0 0   XYZ
    dof rx ry rz
    limits (-20.0 45.0)
           (-30.0 30.0)
           (-30.0 30.0)
  end
  begin
     id 17 
     name lclavicle
     direction 0.970351 0.240904 -0.0196058  
     length 4.04862  
     axis 0 0 0   XYZ
    dof ry rz
    limits (-20.0 10.0)
           (0.0 20.0)
  end
  begin
     id 18 
     name lhumerus
     direction 1 -4.4896e-011 -1.40911e-018   
     length 5.58345   
     axis 180 -30 -90   XYZ
    dof rx ry rz
    limits (-60.0 90.0)
           (-90.0 90.0)
           (-90.0 90.0)
  end
  begin
     id 19
     name lradius
     direction 1 -4.48968e-011 5.88912e-028   
     length 3.71087   
     axis 180 -30 -90   XYZ
    dof rx
    limits (-10.0 170.0)
  end
  begin
     id 20
     name lwrist
     direction 1 -4.48955e-011 -8.83775e-028   
     length 1.85544   
     axis 5.52448e-016 90 90   XYZ
    dof ry
    limits (-180.0 0.0)
 end
  begin
     id 21 
     name lhand
     direction 1 -4.49035e-011 -1.76755e-027   
     length 0.562322   
     axis 1.12785e-015 90 90   XYZ
    dof rx rz
    limits (-90.0 90.0)
           (-45.0 45.0)
  end
  begin
     id 22 
     name lfingers
     direction 1 -4.48824e-011 -3.5351e-027   
     length 0.453359   
     axis 2.2557e-015 90 90   XYZ
    dof rx
    limits (0.0 90.0)
  end
  begin
     id 23
     name lthumb
     direction 0.707107 -6.34888e-011 0.707107   
     length 0.650935   
     axis -90 45 2.85299e-015   XYZ
    dof rx rz
    limits (-45.0 45.0)
           (-45.0 45.0)
  end
  begin
     id 24 
     name rclavicle
     direction -0.96165 0.268562 -0.0557131   
     length 4.05446  
     axis 0 0 0   XYZ 
    dof ry rz
    limits (-10.0 20.0)
           (-20.0 0.0)
  end
  begin
     id 25 
     name rhumerus
     direction -1 -4.48957e-011 -3.36329e-027  
     length 5.20357   
     axis 180 30 90   XYZ
    dof rx ry rz
    limits (-90.0 60.0)
           (-90.0 90.0)
           (-90.0 90.0)
  end
  begin
     id 26 
     name rradius
     direction -1 -4.48974e-011 4.51441e-027   
     length 3.64937   
     axis 180 30 90   XYZ
    dof rx
    limits (-10.0 170.0)
  end
  begin
     id 27 
     name rwrist
     direction -1 -4.4896e-011 -8.83775e-028   
     length 1.82468   
     axis 5.52448e-016 -90 -90   XYZ
    dof ry
    limits (-180.0 0.0)
  end
  begin
     id 28
     name rhand
     direction -1 -4.48996e-011 -1.76755e-027   
     length 0.617996   
     axis 1.12785e-015 -90 -90   XYZ
    dof rx rz
    limits (-90.0 90.0)
           (-45.0 45.0)
  end
  begin
     id 29
     name rfingers
     direction -1 -4.48957e-011 -3.5351e-027   
     length 0.498244   
     axis 2.2557e-015 -90 -90   XYZ
    dof rx
    limits (0.0 90.0)
  end
  begin
     id 30
     name rthumb
     direction -0.707107 -6.34931e-011 0.707107   
     length 0.715382   
     axis -90 -45 -2.85299e-015   XYZ
    dof rx rz
    limits (-45.0 45.0)
           (-45.0 45.0)
  end
:hierarchy
  begin
    root lhipjoint rhipjoint lowerback
    lhipjoint lfemur
    lfemur ltibia
    ltibia lfoot
    lfoot ltoes
    rhipjoint rfemur
    rfemur rtibia
    rtibia rfoot
    rfoot rtoes
    lowerback upperback
    upperback thorax
    thorax lowerneck lclavicle rclavicle
    lowerneck upperneck
    upperneck head
    lclavicle lhumerus
    lhumerus lradius
    lradius lwrist
    lwrist lhand lthumb
    lhand lfingers
    rclavicle rhumerus
    rhumerus rradius
    rradius rwrist
    rwrist rhand rthumb
    rhand rfingers
  end

#!OML:ASF H:\ManfredETheater\Project 1\Capture day 2\Session 1\Male1.ASF
:FULLY-SPECIFIED
:DEGREES
66
root 6.3285 16.6342 -14.2728 11.0183 3.21581 -7.26309
lowerback 16.2003 0.629902 11.6475
upperback -2.58131 3.72971 4.27692
thorax -11.6465 1.1447 -2.77331
lowerneck -28.1548 -3.04104 -4.00135
upperneck 12.7732 -1.69609 -4.38919
head 8.5092 -1.52189 -1.14317
rclavicle 2.48481e-014 -1.90833e-014
rhumerus -41.0755 9.51371 -84.8779
rradius 90.3661
rwrist -3.96017
rhand -31.9892 7.50509
rfingers 7.12502
rthumb -5.23829 -22.4102
lclavicle 2.48481e-014 -1.90833e-014
lhumerus -67.6244 -13.589 100.603
lradius 97.709
lwrist 25.9886
lhand -17.0754 -8.97372
lfingers 7.12502
lthumb 9.16259 20.8072
rfemur -6.91042 -3.31747 34.8011
rtibia 45.0601
rfoot -25.9471 -12.5721
rtoes -25.6648
lfemur -53.5037 13.1116 -7.49264
ltibia 85.4493
lfoot -9.09931 -5.45597
ltoes -7.25648
67
root 6.32351 16.714 -13.6781 11.4169 2.64564 -7.36944
lowerback 15.687 1.08925 11.7327
upperback -2.73477 4.2706 4.10343
thorax -11.4286 1.39393 -3.12287
lowerneck -28.1688 -3.29477 -4.15146
upperneck 13.0092 -1.99755 -4.2428
head 8.59394 -1.65982 -1.11813
rclavicle -3.83654e-014 -4.45278e-014
rhumerus -41.3955 10.5167 -85.3497
rradius 93.7385
rwrist -3.90236
rhand -31.7797 8.48815
rfingers 7.12502
rthumb -5.03598 -21.432
lclavicle -3.83654e-014 -4.45278e-014
lhumerus -69.5353 -13.4822 100.37
lradius 98.8902
lwrist 26.0403
lhand -16.3546 -9.06949
lfingers 7.12502
lthumb 9.85808 20.6797
rfemur -4.46809 -2.56925 34.7615
rtibia 43.107
rfoot -22.7848 -12.3974
rtoes -27.1081
lfemur -55.1361 13.3937 -7.71585
ltibia 82.6528
lfoot -9.54287 -5.77429
ltoes -8.49917
68
root 6.32433 16.7994 -13.0697 11.5663 2.67912 -7.311
lowerback 15.1874 1.30103 11.9484
upperback -2.84155 4.50367 3.91549
thorax -11.194 1.49357 -3.48027
lowerneck -28.0973 -3.54089 -4.33408
upperneck 13.1911 -2.28447 -4.10107
head 8.64813 -1.791 -1.08528
rclavicle 5.36719e-015 3.81667e-014
rhumerus -41.7377 11.5878 -85.7069
rradius 97.0948
rwrist -3.40541
rhand -31.5771 8.27394
rfingers 7.12502
rthumb -4.84035 -21.6508
lclavicle 5.36719e-015 3.81667e-014
lhumerus -71.2865 -13.2424 100.064
lradius 99.8347
lwrist 25.9584
lhand -15.9673 -9.04896
lfingers 7.12502
lthumb 10.2317 20.6822
rfemur -1.93311 -2.504 34.6166
rtibia 41.1413
rfoot -19.1988 -12.1449
rtoes -28.2288
lfemur -56.346 12.901 -7.85896
ltibia 79.5659
lfoot -9.79499 -5.84961
ltoes -9.54622
69
root 6.32832 16.8859 -12.4558 11.6334 2.87874 -7.2152
lowerback 14.7135 1.42229 12.1652
upperback -2.93206 4.62162 3.76237
thorax -10.9732 1.5411 -3.771
lowerneck -28.148 -3.74859 -4.4446
upperneck 13.5077 -2.50439 -4.10359
head 8.76789 -1.90794 -1.10877
rclavicle -3.73715e-014 -1.27222e-014
rhumerus -42.1903 12.6221 -86.0606
rradius 100.278
rwrist -2.80472
rhand -31.2894 8.56965
rfingers 7.12502
rthumb -4.56261 -21.3612
lclavicle -3.73715e-014 -1.27222e-014
lhumerus -72.9026 -12.7911 99.6757
lradius 100.59
lwrist 25.6753
lhand -15.7908 -8.83259
lfingers 7.12502
lthumb 10.402 20.8901
rfemur 0.562025 -2.74336 34.3903
rtibia 39.0754
rfoot -14.9641 -11.7648
rtoes -29.2041
lfemur -57.2815 12.1678 -7.87508
ltibia 76.2616
lfoot -9.92506 -5.98306
ltoes -9.88095
70
root 6.33469 16.972 -11.8366 11.5542 3.11632 -7.00826
lowerback 14.3261 1.50826 12.2923
upperback -2.97908 4.68408 3.61014
thorax -10.7664 1.56929 -4.00155
lowerneck -28.0269 -3.93453 -4.62361
upperneck 13.6829 -2.69704 -4.05884
head 8.81316 -2.00566 -1.09534
rclavicle 7.95139e-015 4.77083e-014
rhumerus -42.7322 13.6279 -86.383
rradius 103.329
rwrist -2.21355
rhand -31.0738 9.03572
rfingers 7.12502
rthumb -4.35439 -20.8995
lclavicle 7.95139e-015 4.77083e-014
lhumerus -74.4053 -12.2758 99.2583
lradius 101.171
lwrist 25.2861
lhand -15.9211 -8.92351
lfingers 7.12502
lthumb 10.2763 20.8054
rfemur 3.14597 -3.09731 33.9868
rtibia 36.8208
rfoot -10.1478 -11.2843
rtoes -29.6948
lfemur -57.8198 11.2792 -7.8463
ltibia 72.7825
lfoot -9.85142 -6.11883
ltoes -10.1155
71
root 6.34127 17.0531 -11.2147 11.4243 3.45585 -6.7101
lowerback 13.9833 1.53243 12.3107
upperback -3.02984 4.65502 3.48155
thorax -10.6132 1.55886 -4.12915
lowerneck -27.9143 -4.09395 -4.79252
upperneck 13.8956 -2.8451 -4.06854
head 8.87297 -2.08952 -1.09665
rclavicle 4.17448e-015 -9.54166e-015
rhumerus -43.3333 14.6017 -86.657
rradius 106.223
rwrist -1.69006
rhand -30.5819 9.7011
rfingers 7.12502
rthumb -3.87943 -20.2433
lclavicle 4.17448e-015 -9.54166e-015
lhumerus -75.7763 -11.6256 98.7888
lradius 101.587
lwrist 24.9667
lhand -16.3309 -9.0832
lfingers 7.12502
lthumb 9.88092 20.6649
rfemur 5.73487 -3.49098 33.4955
rtibia 34.3794
rfoot -4.78233 -10.9786
rtoes -29.476
lfemur -58.1433 10.2455 -7.77952
ltibia 69.1878
lfoot -9.52122 -6.27635
ltoes -10.5961
72
root 6.3543 17.1307 -10.5827 11.189 3.66979 -6.38059
lowerback 13.5808 1.60087 12.3166
upperback -2.99787 4.66186 3.34253
thorax -10.3242 1.57761 -4.26356
lowerneck -27.7342 -4.25446 -4.9956
upperneck 14.0601 -2.99609 -4.04612
head 8.90636 -2.17137 -1.07959
rclavicle -3.97569e-014 -3.65764e-014
rhumerus -43.9463 15.5052 -86.9432
rradius 108.879
rwrist -0.565873
rhand -30.65 10.1964
rfingers 7.12502
rthumb -3.94521 -19.7468
lclavicle -3.97569e-014 -3.65764e-014
lhumerus -77.0018 -11.0347 98.3573
lradius 101.921
lwrist 24.5577
lhand -17.0882 -9.01328
lfingers 7.12502
lthumb 9.15024 20.7682
rfemur 8.42625 -3.59978 32.9366
rtibia 31.7797
rfoot 0.966753 -11.0698
rtoes -27.1672
lfemur -58.0657 9.15724 -7.59457
ltibia 65.5121
lfoot -8.72002 -6.34498
ltoes -10.7124
73
root 6.36751 17.204 -9.95053 10.9417 3.94046 -6.047
lowerback 13.2466 1.633 12.3229
upperback -2.99483 4.6367 3.21074
thorax -10.1149 1.57527 -4.38752
lowerneck -27.6231 -4.38554 -5.14835
upperneck 14.338 -3.11042 -4.05634
head 8.9897 -2.24051 -1.07988
rclavicle -4.6118e-014 4.6118e-014
rhumerus -44.5948 16.3834 -87.1834
rradius 111.379
rwrist 0.371035
rhand -30.5606 10.3657
rfingers 7.12502
rthumb -3.85886 -19.5791
lclavicle -4.6118e-014 4.6118e-014
lhumerus -78.1361 -10.4432 97.874
lradius 102.21
lwrist 24.2016
lhand -17.8752 -8.92568
lfingers 7.12502
lthumb 8.39076 20.8877
rfemur 11.0452 -3.5704 32.4777
rtibia 29.1223
rfoot 6.93205 -11.5834
rtoes -24.8772
lfemur -57.8216 7.89829 -7.21233
ltibia 61.792
lfoot -7.35341 -6.38079
ltoes -11
74
root 6.37345 17.2768 -9.32416 10.8919 4.11446 -5.70138
lowerback 12.7925 1.72104 12.1923
upperback -3.05833 4.65321 3.09404
thorax -9.9137 1.59941 -4.42205
lowerneck -27.4003 -4.51703 -5.3433
upperneck 14.568 -3.22862 -4.03078
head 9.03984 -2.30789 -1.05831
rclavicle -1.39149e-014 1.74931e-014
rhumerus -45.3174 17.0853 -87.433
rradius 113.658
rwrist 1.26604
rhand -30.4336 10.8104
rfingers 7.12502
rthumb -3.73619 -19.1366
lclavicle -1.39149e-014 1.74931e-014
lhumerus -79.1847 -9.89618 97.3833
lradius 102.519
lwrist 23.9319
lhand -18.3324 -8.93611
lfingers 7.12502
lthumb 7.94955 20.8944
rfemur 13.3243 -3.24775 32.1057
rtibia 26.6256
rfoot 12.8205 -12.3768
rtoes -19.3113
lfemur -57.5645 6.50587 -6.55773
ltibia 58.0414
lfoot -5.39385 -6.27008
ltoes -11.9597
75
root 6.38671 17.3428 -8.68474 10.7198 3.78962 -5.4152
lowerback 12.3755 1.96179 12.0335
upperback -3.01838 4.86308 2.96975
thorax -9.58674 1.72856 -4.48289
lowerneck -27.2429 -4.65391 -5.52099
upperneck 14.8501 -3.35763 -3.98904
head 9.11893 -2.3793 -1.03803
rclavicle -8.94531e-015 3.18055e-015
rhumerus -45.9076 17.7768 -87.5933
rradius 115.708
rwrist 1.61552
rhand -30.5332 11.327
rfingers 7.12502
rthumb -3.83234 -18.6182
lclavicle -8.94531e-015 3.18055e-015
lhumerus -80.0842 -9.41273 96.8739
lradius 102.85
lwrist 23.6652
lhand -18.6522 -8.89481
lfingers 7.12502
lthumb 7.64083 20.9472
rfemur 15.6224 -2.5586 31.6751
rtibia 24.5965
rfoot 18.0162 -12.8427
rtoes -15.6583
lfemur -56.8227 5.21815 -5.56938
ltibia 54.3861
lfoot -3.15981 -5.99302
ltoes -13.4538
